<svg width="52" height="47" viewBox="0 0 52 47" fill="none" xmlns="http://www.w3.org/2000/svg">
<path d="M24.3574 23.6855C24.9727 24.3008 25.9395 24.3008 26.5547 23.6855L36.0469 13.666C38.8594 10.7656 38.6836 5.93164 35.6074 3.20703C32.8828 0.833984 28.8398 1.27344 26.3789 3.91016L25.4121 4.87695L24.4453 3.91016C21.9844 1.27344 17.9414 0.833984 15.2168 3.20703C12.1406 5.93164 11.9648 10.7656 14.7773 13.666L24.3574 23.6855ZM50.1094 31.2441C48.9668 29.6621 46.7695 29.3105 45.1875 30.4531L34.6406 38.2754H24.0059C23.3027 38.2754 22.6875 37.5723 22.6875 36.8691C22.6875 36.166 23.3906 35.5508 24.0059 35.5508H30.9492C32.2676 35.5508 33.5859 34.584 33.8496 33.2656C34.1133 31.5957 32.7949 29.9258 31.0371 29.9258H16.9746C14.6895 29.9258 12.2285 30.8047 10.3828 32.2988L6.33984 35.5508H1.50586C0.714844 35.5508 0.1875 36.2539 0.1875 36.957V45.2188C0.1875 46.0098 0.802734 46.625 1.50586 46.625H31.916C33.8496 46.625 35.7832 46.0098 37.2773 44.8672L49.2305 36.166C50.9004 35.0234 51.252 32.8262 50.1094 31.2441Z" fill="#D11E42"/>
</svg>
