<svg width="54" height="47" viewBox="0 0 54 47" fill="none" xmlns="http://www.w3.org/2000/svg">
<path d="M33.75 23.0781L28.8672 32.8438C28.2812 34.0156 26.6211 33.918 26.0352 32.7461L20.4688 20.4414L17.5391 27.4727L7.96875 27.375L25.1562 45.2461C26.4258 46.5156 28.4766 46.5156 29.6484 45.2461L46.9336 27.375L35.9961 27.4727L33.75 23.0781ZM47.7148 5.40234C42.3438 0.8125 34.2383 1.69141 29.3555 6.67188L27.5 8.72266L25.5469 6.67188C20.6641 1.69141 12.5586 0.8125 7.1875 5.40234C1.62109 10.2852 0.9375 18.5859 5.23438 24.25H15.4883L19.0039 15.8516C19.4922 14.582 21.25 14.582 21.8359 15.8516L27.5 28.4492L32.2852 18.8789C32.8711 17.8047 34.5312 17.8047 35.1172 18.8789L37.8516 24.3477H49.668C53.9648 18.5859 53.2812 10.2852 47.7148 5.40234Z" fill="#D11E42"/>
</svg>
