<svg width="38" height="51" viewBox="0 0 38 51" fill="none" xmlns="http://www.w3.org/2000/svg">
<path d="M16.6562 49.0781C11.5781 42.7305 0.25 27.5938 0.25 19C0.25 8.64844 8.55078 0.25 19 0.25C29.3516 0.25 37.75 8.64844 37.75 19C37.75 27.5938 26.3242 42.7305 21.2461 49.0781C20.0742 50.543 17.8281 50.543 16.6562 49.0781ZM19 25.25C22.418 25.25 25.25 22.5156 25.25 19C25.25 15.582 22.418 12.75 19 12.75C15.4844 12.75 12.75 15.582 12.75 19C12.75 22.5156 15.4844 25.25 19 25.25Z" fill="#D11E42"/>
</svg>
