<svg width="205" height="51" viewBox="0 0 205 51" fill="none" xmlns="http://www.w3.org/2000/svg">
<path d="M67.5568 42H58.2756V15.8182H67.6335C70.267 15.8182 72.5341 16.3423 74.4347 17.3906C76.3352 18.4304 77.7969 19.9261 78.8196 21.8778C79.8509 23.8295 80.3665 26.1648 80.3665 28.8835C80.3665 31.6108 79.8509 33.9545 78.8196 35.9148C77.7969 37.875 76.3267 39.3793 74.4091 40.4276C72.5 41.4759 70.2159 42 67.5568 42ZM63.8111 37.2571H67.3267C68.9631 37.2571 70.3395 36.9673 71.456 36.3878C72.581 35.7997 73.4247 34.892 73.9872 33.6648C74.5582 32.429 74.8438 30.8352 74.8438 28.8835C74.8438 26.9489 74.5582 25.3679 73.9872 24.1406C73.4247 22.9134 72.5852 22.0099 71.4688 21.4304C70.3523 20.8509 68.9759 20.5611 67.3395 20.5611H63.8111V37.2571ZM93.2369 42.3835C91.2511 42.3835 89.5337 41.9616 88.0849 41.1179C86.6445 40.2656 85.5323 39.081 84.7482 37.5639C83.9641 36.0384 83.5721 34.2699 83.5721 32.2585C83.5721 30.2301 83.9641 28.4574 84.7482 26.9403C85.5323 25.4148 86.6445 24.2301 88.0849 23.3864C89.5337 22.5341 91.2511 22.108 93.2369 22.108C95.2227 22.108 96.9357 22.5341 98.3761 23.3864C99.8249 24.2301 100.941 25.4148 101.725 26.9403C102.51 28.4574 102.902 30.2301 102.902 32.2585C102.902 34.2699 102.51 36.0384 101.725 37.5639C100.941 39.081 99.8249 40.2656 98.3761 41.1179C96.9357 41.9616 95.2227 42.3835 93.2369 42.3835ZM93.2624 38.1648C94.1658 38.1648 94.9201 37.9091 95.5252 37.3977C96.1303 36.8778 96.5863 36.1705 96.8931 35.2756C97.2085 34.3807 97.3661 33.3622 97.3661 32.2202C97.3661 31.0781 97.2085 30.0597 96.8931 29.1648C96.5863 28.2699 96.1303 27.5625 95.5252 27.0426C94.9201 26.5227 94.1658 26.2628 93.2624 26.2628C92.3505 26.2628 91.5835 26.5227 90.9613 27.0426C90.3477 27.5625 89.8832 28.2699 89.5678 29.1648C89.261 30.0597 89.1076 31.0781 89.1076 32.2202C89.1076 33.3622 89.261 34.3807 89.5678 35.2756C89.8832 36.1705 90.3477 36.8778 90.9613 37.3977C91.5835 37.9091 92.3505 38.1648 93.2624 38.1648ZM115.392 42.3835C113.372 42.3835 111.633 41.9744 110.176 41.1562C108.727 40.3295 107.61 39.1619 106.826 37.6534C106.042 36.1364 105.65 34.3423 105.65 32.2713C105.65 30.2514 106.042 28.4787 106.826 26.9531C107.61 25.4276 108.714 24.2386 110.137 23.3864C111.569 22.5341 113.248 22.108 115.174 22.108C116.47 22.108 117.676 22.3168 118.792 22.7344C119.917 23.1435 120.897 23.7614 121.733 24.5881C122.576 25.4148 123.233 26.4545 123.701 27.7074C124.17 28.9517 124.404 30.4091 124.404 32.0795V33.5753H107.824V30.2003H119.278C119.278 29.4162 119.108 28.7216 118.767 28.1165C118.426 27.5114 117.953 27.0384 117.348 26.6974C116.751 26.348 116.056 26.1733 115.264 26.1733C114.437 26.1733 113.704 26.3651 113.065 26.7486C112.434 27.1236 111.94 27.6307 111.582 28.2699C111.224 28.9006 111.041 29.6037 111.032 30.3793V33.5881C111.032 34.5597 111.211 35.3991 111.569 36.1065C111.936 36.8139 112.451 37.3594 113.116 37.7429C113.781 38.1264 114.569 38.3182 115.481 38.3182C116.086 38.3182 116.64 38.233 117.143 38.0625C117.646 37.892 118.076 37.6364 118.434 37.2955C118.792 36.9545 119.065 36.5369 119.252 36.0426L124.289 36.375C124.034 37.5852 123.51 38.642 122.717 39.5455C121.933 40.4403 120.919 41.1392 119.674 41.642C118.439 42.1364 117.011 42.3835 115.392 42.3835ZM130.963 15.8182L137.291 35.7102H137.534L143.875 15.8182H150.011L140.985 42H133.852L124.814 15.8182H130.963ZM153.06 42V22.3636H158.506V42H153.06ZM155.796 19.8324C154.986 19.8324 154.292 19.5639 153.712 19.027C153.141 18.4815 152.855 17.8295 152.855 17.071C152.855 16.321 153.141 15.6776 153.712 15.1406C154.292 14.5952 154.986 14.3224 155.796 14.3224C156.605 14.3224 157.296 14.5952 157.867 15.1406C158.446 15.6776 158.736 16.321 158.736 17.071C158.736 17.8295 158.446 18.4815 157.867 19.027C157.296 19.5639 156.605 19.8324 155.796 19.8324ZM170.104 42.3196C168.613 42.3196 167.262 41.9361 166.052 41.169C164.85 40.3935 163.896 39.2557 163.188 37.7557C162.489 36.2472 162.14 34.3977 162.14 32.2074C162.14 29.9574 162.502 28.0866 163.227 26.5952C163.951 25.0952 164.914 23.9744 166.116 23.233C167.326 22.483 168.651 22.108 170.092 22.108C171.191 22.108 172.107 22.2955 172.84 22.6705C173.582 23.0369 174.178 23.4972 174.63 24.0511C175.09 24.5966 175.44 25.1335 175.678 25.6619H175.844V15.8182H181.278V42H175.908V38.8551H175.678C175.423 39.4006 175.06 39.9418 174.592 40.4787C174.131 41.0071 173.531 41.446 172.789 41.7955C172.056 42.1449 171.161 42.3196 170.104 42.3196ZM171.83 37.9858C172.708 37.9858 173.45 37.7472 174.055 37.2699C174.668 36.7841 175.137 36.1065 175.461 35.2372C175.793 34.3679 175.96 33.3494 175.96 32.1818C175.96 31.0142 175.798 30 175.474 29.1392C175.15 28.2784 174.681 27.6136 174.067 27.1449C173.454 26.6761 172.708 26.4418 171.83 26.4418C170.935 26.4418 170.181 26.6847 169.567 27.1705C168.954 27.6562 168.489 28.3295 168.174 29.1903C167.859 30.0511 167.701 31.0483 167.701 32.1818C167.701 33.3239 167.859 34.3338 168.174 35.2116C168.498 36.081 168.962 36.7628 169.567 37.2571C170.181 37.7429 170.935 37.9858 171.83 37.9858ZM191.355 42.3707C190.102 42.3707 188.985 42.1534 188.005 41.7188C187.025 41.2756 186.25 40.6236 185.679 39.7628C185.116 38.8935 184.835 37.8111 184.835 36.5156C184.835 35.4247 185.035 34.5085 185.436 33.767C185.836 33.0256 186.382 32.429 187.072 31.9773C187.762 31.5256 188.547 31.1847 189.424 30.9545C190.311 30.7244 191.24 30.5625 192.211 30.4688C193.353 30.3494 194.274 30.2386 194.973 30.1364C195.672 30.0256 196.179 29.8636 196.494 29.6506C196.809 29.4375 196.967 29.1222 196.967 28.7045V28.6278C196.967 27.8182 196.711 27.1918 196.2 26.7486C195.697 26.3054 194.981 26.0838 194.052 26.0838C193.072 26.0838 192.292 26.3011 191.713 26.7358C191.133 27.1619 190.75 27.6989 190.562 28.3466L185.525 27.9375C185.781 26.7443 186.284 25.7131 187.034 24.8438C187.784 23.9659 188.751 23.2926 189.936 22.8239C191.129 22.3466 192.51 22.108 194.078 22.108C195.169 22.108 196.213 22.2358 197.21 22.4915C198.216 22.7472 199.106 23.1435 199.882 23.6804C200.666 24.2173 201.284 24.9077 201.735 25.7514C202.187 26.5866 202.413 27.5881 202.413 28.7557V42H197.248V39.277H197.095C196.779 39.8906 196.358 40.4318 195.829 40.9006C195.301 41.3608 194.666 41.723 193.924 41.9872C193.183 42.2429 192.326 42.3707 191.355 42.3707ZM192.914 38.6122C193.716 38.6122 194.423 38.4545 195.037 38.1392C195.65 37.8153 196.132 37.3807 196.481 36.8352C196.831 36.2898 197.005 35.6719 197.005 34.9815V32.8977C196.835 33.0085 196.6 33.1108 196.302 33.2045C196.012 33.2898 195.684 33.3707 195.318 33.4474C194.951 33.5156 194.585 33.5795 194.218 33.6392C193.852 33.6903 193.52 33.7372 193.221 33.7798C192.582 33.8736 192.024 34.0227 191.547 34.2273C191.069 34.4318 190.699 34.7088 190.434 35.0582C190.17 35.3991 190.038 35.8253 190.038 36.3366C190.038 37.0781 190.306 37.6449 190.843 38.0369C191.389 38.4205 192.079 38.6122 192.914 38.6122Z" fill="white"/>
<g clip-path="url(#clip0_213_307)">
<path d="M26.9828 0.704426C26.2175 -0.235388 24.781 -0.234392 24.0166 0.704426C18.8139 7.09357 6.62012 23.6249 6.62012 32.1204C6.62012 42.5306 15.0895 51 25.4997 51C35.9099 51 44.3793 42.5306 44.3793 32.1203C44.3793 23.6221 32.1286 7.02354 26.9828 0.704426ZM14.5595 34.0316C13.5036 34.0308 12.6483 33.1761 12.6483 32.1204C12.6483 31.4702 12.8249 29.9615 14.0075 27.1627C14.4186 26.1897 15.5406 25.7343 16.5136 26.1454C17.4866 26.5565 17.942 27.6784 17.5309 28.6514C16.4867 31.1227 16.4733 32.1107 16.4733 32.1203C16.4719 33.1757 15.6159 34.0315 14.5608 34.0315C14.5602 34.0316 14.5598 34.0316 14.5595 34.0316ZM25.4997 44.9719C21.3169 44.9719 17.3811 42.9205 14.9716 39.4842C14.3651 38.6194 14.5745 37.4266 15.4393 36.8202C16.3041 36.2138 17.4969 36.4232 18.1032 37.288C19.7975 39.7043 22.5625 41.1468 25.4996 41.1468C26.5558 41.1468 27.4121 42.0032 27.4121 43.0593C27.4122 44.1156 26.5559 44.9719 25.4997 44.9719Z" fill="white"/>
</g>
<defs>
<clipPath id="clip0_213_307">
<rect width="51" height="51" fill="white"/>
</clipPath>
</defs>
</svg>
